<svg id="visual" viewBox="0 0 1920 1080" width="1920" height="1080" xmlns="http://www.w3.org/2000/svg" xmlns:xlink="http://www.w3.org/1999/xlink" version="1.1"><rect x="0" y="0" width="1920" height="1080" fill="#f0be73"></rect><path d="M0 738L53.3 732.7C106.7 727.3 213.3 716.7 320 687.3C426.7 658 533.3 610 640 607.7C746.7 605.3 853.3 648.7 960 691.3C1066.7 734 1173.3 776 1280 786.7C1386.7 797.3 1493.3 776.7 1600 752.8C1706.7 729 1813.3 702 1866.7 688.5L1920 675L1920 1081L1866.7 1081C1813.3 1081 1706.7 1081 1600 1081C1493.3 1081 1386.7 1081 1280 1081C1173.3 1081 1066.7 1081 960 1081C853.3 1081 746.7 1081 640 1081C533.3 1081 426.7 1081 320 1081C213.3 1081 106.7 1081 53.3 1081L0 1081Z" fill="#FE9F10" stroke-linecap="round" stroke-linejoin="miter"></path></svg>